<?xml version="1.0" encoding="utf-8"?>
<!-- Generator: Adobe Illustrator 24.0.1, SVG Export Plug-In . SVG Version: 6.00 Build 0)  -->
<svg version="1.1" id="图层_1" xmlns="http://www.w3.org/2000/svg" xmlns:xlink="http://www.w3.org/1999/xlink" x="0px" y="0px"
	 viewBox="0 0 963.8 198.4" style="enable-background:new 0 0 963.8 198.4;" xml:space="preserve">
<style type="text/css">
	.st0{fill:#0057FF;stroke:#0057FF;stroke-width:4;stroke-miterlimit:10;}
	.st1{fill:#0057FF;}
	.st2{fill:#35E5FF;}
	.st3{fill:#FFFFFF;}
</style>
<title>ECR Robot RGB_final</title>
<g id="圖層_1">
	<path class="st0" d="M219,40.6l-10.2,116.3c-0.8,9.3,6.1,17.5,15.4,18.3c0.5,0,1,0.1,1.5,0.1h82l0.5-5.8
		c0.8-9.4-6.2-17.6-15.5-18.4c-0.4,0-0.9-0.1-1.3-0.1h-44.6c-6.7,0-12.1-5.5-12-12.1c0-0.3,0-0.7,0-1l2.8-31.9h60.7
		c8.8,0.1,16.2-6.7,16.9-15.5l0.8-8.8h-76.3l1.9-21.4c0.5-6.3,5.8-11,12-11h49.6c8.8,0,16.1-6.7,16.9-15.5l0.8-8.8h-85
		C227.1,25.2,219.8,31.9,219,40.6z"/>
	<path class="st0" d="M352,40.6l-10.2,116.3c-0.8,9.3,6.1,17.5,15.4,18.3c0.5,0,1,0.1,1.5,0.1h82l0.5-5.8
		c0.8-9.3-6.1-17.5-15.4-18.3c-0.5,0-1-0.1-1.5-0.1h-44.5c-6.7,0-12.1-5.4-12.1-12c0-0.4,0-0.7,0-1.1l6.8-77.5
		c0.5-6.3,5.8-11.1,12.1-11h49.6c8.8,0,16.1-6.7,16.9-15.5l0.8-8.8h-85C360.1,25.2,352.8,31.9,352,40.6z"/>
	<path class="st1" d="M950.5,96.3l0.6-6.3h-34.6l2.7-31.3H913c-7.8,0-14.3,5.9-14.9,13.7l-7.6,86.7c-0.7,8.3,5.4,15.5,13.6,16.3
		c0.5,0,0.9,0.1,1.4,0.1h38.2l0.3-3.7c0.7-8.3-5.4-15.5-13.6-16.2c-0.4,0-0.9-0.1-1.3-0.1h-1.8c-8.3,0-15-6.7-15-15
		c0-0.4,0-0.9,0.1-1.3l1.3-15.3c0.7-7.7,7.2-13.7,14.9-13.7h7.1C943.4,109.9,949.8,104,950.5,96.3z"/>
	<path class="st0" d="M576.1,36.4c-6.6-7.2-16-11.3-25.8-11.4h-46.8c-8.8,0-16.1,6.7-16.9,15.5l-11.8,134.8h8.7
		c8.8,0,16.2-6.7,16.9-15.5l4.7-53.8h15.3l31.7,58.3c2.5,6.6,8.8,11,15.8,11h14.9L546.9,106h2.4c18.2,0.1,33.3-13.8,34.8-31.9l1-11
		C586,53.3,582.7,43.7,576.1,36.4z M560.9,62.4l-0.7,8.3c-0.5,6.2-5.7,11-12,11h-40.9l2.4-27c0.3-3.1,2.8-5.5,5.9-5.5h33.3
		c6.7,0,12.1,5.5,12,12.2C560.9,61.8,560.9,62.1,560.9,62.4L560.9,62.4z"/>
	<path class="st1" d="M662.6,100.3h-42.4c-7.8,0-14.3,5.9-14.9,13.7l-3.9,45c-0.7,8.3,5.4,15.5,13.6,16.3c0.5,0,0.9,0.1,1.4,0.1
		h42.4c7.8,0,14.3-6,14.9-13.7l3.9-45c0.7-8.3-5.4-15.5-13.6-16.2C663.5,100.3,663.1,100.3,662.6,100.3z M638.5,120.3h2.4
		c8.3,0,15,6.7,15.1,14.9c0,0.5,0,0.9-0.1,1.4l-0.4,4.9c-0.7,7.7-7.2,13.7-14.9,13.7h-2.4c-8.3,0-15-6.7-15-15c0-0.4,0-0.9,0.1-1.3
		l0.4-4.9C624.3,126.3,630.7,120.4,638.5,120.3L638.5,120.3z"/>
	<path class="st1" d="M855.4,100.3H813c-7.8,0-14.3,5.9-14.9,13.7l-3.9,45c-0.7,8.3,5.4,15.5,13.6,16.3c0.5,0,0.9,0.1,1.4,0.1h42.4
		c7.8,0,14.3-5.9,15-13.7l3.9-45c0.7-8.3-5.4-15.5-13.6-16.2C856.3,100.3,855.8,100.3,855.4,100.3z M831.2,120.3h2.4
		c8.3,0,15,6.7,15.1,14.9c0,0.5,0,0.9-0.1,1.4l-0.4,4.9c-0.7,7.7-7.2,13.7-14.9,13.7h-2.4c-8.3,0-15-6.7-15-15c0-0.4,0-0.9,0.1-1.3
		l0.4-4.9C817,126.3,823.4,120.4,831.2,120.3L831.2,120.3z"/>
	<path class="st1" d="M759,100.3h-36.1l6.6-75.2h-6.3c-7.8,0-14.3,5.9-14.9,13.7l-6.6,75.2l0,0l-3.9,45c0,0,0,0.1,0,0.1
		c-0.5,5.8,2.4,11.3,7.4,14.2l0.2,0.1c1.8,1,3.7,1.6,5.8,1.8c0.2,0,0.3,0,0.5,0c0.4,0,0.8,0.1,1.2,0.1h42.4c7.8,0,14.3-6,14.9-13.7
		l3.9-45c0.7-8.3-5.4-15.5-13.7-16.2C759.9,100.3,759.5,100.3,759,100.3z M752.2,136.7l-0.4,4.9c-0.7,7.8-7.2,13.7-15,13.7h-2.4
		c-8.3,0-15-6.7-15-15c0-0.4,0-0.9,0.1-1.3l0.4-4.9c0.7-7.8,7.2-13.7,14.9-13.7h2.4c8.3,0,15,6.7,15,15
		C752.3,135.8,752.3,136.2,752.2,136.7L752.2,136.7z"/>
	<path class="st1" d="M85.2,154.7H59.9c-8.3,0-15-6.8-15-15c0-0.4,0-0.8,0.1-1.2l1.3-14.8H14.9l-2.7,31.1l0,0l-1.3,15
		c-0.7,8.3,5.4,15.5,13.6,16.3c0.5,0,0.9,0.1,1.4,0.1h73l1.3-15c0.8-8.3-5.3-15.5-13.6-16.3C86.2,154.7,85.7,154.7,85.2,154.7z"/>
	<path class="st1" d="M82.4,59.2L82.4,59.2c2.1,0,3.8,1.7,3.8,3.8v7.9c0,2.1-1.7,3.8-3.8,3.8h0c-2.1,0-3.8-1.7-3.8-3.8V63
		C78.7,60.9,80.3,59.2,82.4,59.2z"/>
	<path class="st1" d="M103.8,59.2L103.8,59.2c2.1,0,3.8,1.7,3.8,3.8v7.9c0,2.1-1.7,3.8-3.8,3.8h0c-2.1,0-3.8-1.7-3.8-3.8V63
		C100,60.9,101.7,59.2,103.8,59.2z"/>
	<path class="st1" d="M148.1,116.8c7.8-5.8,12.7-14.7,13.5-24.4l3.9-45c1.6-18.8-12.3-35.4-31.1-37.1c-1-0.1-2-0.1-3-0.1h-16.8
		l-1.5,17.7c-0.7,7.7-7.2,13.7-14.9,13.7h8.9c14,0,25.4,11.4,25.4,25.4c0,0.7,0,1.5-0.1,2.2l0,0c-1.2,13.1-12.1,23.1-25.3,23.1h-4.2
		l-1.5,17.7c-0.7,7.7-7.2,13.7-14.9,13.7h27.9l14.6,51.6c1.8,6.5,7.7,10.9,14.4,10.9h24.3L148.1,116.8z M147.6,66l-0.4,4.3
		c-0.5,5-4.7,8.9-9.8,9h-4.1c3.7-6.9,4-15.1,0.8-22.3h3.9l1.2-9.4c0.1-0.6,0.6-1.1,1.3-1.1h1c0.7,0,1.3,0.6,1.3,1.3c0,0,0,0,0,0
		l-0.5,9.7C145.9,59,148,62.4,147.6,66z"/>
	<path class="st2" d="M56.2,10.2H38.6c-7.8,0-14.3,5.9-14.9,13.7l-8.8,99.7h71.5c7.8,0,14.3-5.9,14.9-13.7l1.5-17.7H76.7
		c-9.2,0-17.6-4.9-22.1-12.9h-2.3c-4.5,0.1-8.2-3.5-8.2-7.9c0-0.4,0-0.7,0.1-1.1l0.4-4.3c0.5-4.7,4.2-8.4,8.8-8.9
		c3.9-9.4,13.2-15.6,23.4-15.5h14.8l0.6-6.8c-2.1-0.9-3.4-3.1-3.2-5.4c0.3-3.3,3-5.7,6.3-5.8c2.9-0.1,5.3,2.3,5.3,5.1
		c0,0.2,0,0.4,0,0.7c-0.2,2.4-1.8,4.5-4.1,5.4l-0.6,6.8h2.4c7.8,0,14.3-5.9,15-13.7l1.5-17.7H56.2z"/>
	<path class="st3" d="M142.5,57.6l0.5-9.7c0-0.7-0.5-1.3-1.3-1.4c0,0,0,0,0,0h-1c-0.7,0-1.2,0.5-1.3,1.1l-1.2,9.4h-3.9
		c1.7,3.9,2.5,8.2,2.1,12.5l0,0c-0.3,3.4-1.3,6.8-2.9,9.8h4.1c5.1-0.1,9.2-4,9.8-9l0.4-4.3C148,62.4,145.9,59,142.5,57.6z"/>
</g>
</svg>
